<?xml version="1.0" encoding="UTF-8" standalone="no"?>
<svg
   xmlns:dc="http://purl.org/dc/elements/1.1/"
   xmlns:cc="http://creativecommons.org/ns#"
   xmlns:rdf="http://www.w3.org/1999/02/22-rdf-syntax-ns#"
   xmlns:svg="http://www.w3.org/2000/svg"
   xmlns="http://www.w3.org/2000/svg"
   viewBox="0 0 230.73599 59.302666"
   height="59.302666"
   width="230.73599"
   xml:space="preserve"
   id="svg2"
   version="1.1"><metadata
     id="metadata8"><rdf:RDF><cc:Work
         rdf:about=""><dc:format>image/svg+xml</dc:format><dc:type
           rdf:resource="http://purl.org/dc/dcmitype/StillImage" /></cc:Work></rdf:RDF></metadata><defs
     id="defs6"><clipPath
       id="clipPath18"
       clipPathUnits="userSpaceOnUse"><path
         id="path16"
         d="M 0,44.477 H 173.052 V 0 H 0 Z" /></clipPath></defs><g
     transform="matrix(1.3333333,0,0,-1.3333333,0,59.302667)"
     id="g10"><g
       id="g12"><g
         clip-path="url(#clipPath18)"
         id="g14"><g
           transform="translate(165.9566,0.0763)"
           id="g20"><path
             id="path22"
             style="fill:#566e8e;fill-opacity:1;fill-rule:nonzero;stroke:none"
             d="M 0,0 C 2.554,1.781 4.664,3.955 6.098,6.708 5.45,7.075 4.853,7.534 4.106,7.714 c -0.466,0.112 -0.542,0.675 -0.264,1 1.054,1.23 1.77,2.587 2.851,3.749 -1.599,0.616 -3.112,1.423 -4.788,1.856 -0.395,0.102 -0.526,0.542 -0.358,0.879 1.368,2.741 6.621,6.408 1.976,8.869 -0.214,0.115 -0.369,0.443 -0.275,0.676 0.887,2.216 1.773,3.625 3.848,4.584 -0.475,1.959 -1.382,3.158 -3.43,3.928 -0.263,0.099 -0.42,0.291 -0.439,0.577 -0.299,4.516 -6.768,5.282 -9.832,7.41 -0.339,0.236 -0.436,0.821 0,1.033 1.521,0.744 3.065,1.437 4.611,2.125 h -163.963 c 1.171,-1.471 3.541,-2.615 5.387,-3.446 0.438,-0.197 0.339,-0.81 0,-1.033 -1.265,-0.832 -3.274,-2.023 -3.826,-3.565 -0.905,-2.533 2.826,-3.281 4.564,-3.709 0.189,-0.046 0.379,-0.221 0.418,-0.418 0.172,-0.868 -0.068,-1.29 -0.291,-1.98 0.918,-0.358 1.585,-0.981 2.339,-1.719 0.208,-0.204 0.254,-0.649 0,-0.845 -2.949,-2.289 -5.485,-4.95 -8.569,-7.046 2.145,-1.359 4.128,-2.861 5.58,-5 0.239,-0.353 -0.027,-0.745 -0.358,-0.879 -1.944,-0.789 -2.872,-1.942 -3.749,-3.566 l 2.131,-1.065 c 0.294,-0.148 0.364,-0.551 0.214,-0.819 -0.813,-1.461 -1.115,-2.704 -2.132,-3.897 0.423,-0.202 0.842,-0.405 1.334,-0.509 0.247,-0.051 0.451,-0.329 0.44,-0.577 -0.071,-1.591 0.236,-3.024 0.536,-4.403 H -0.064 C -0.039,-0.053 -0.03,-0.021 0,0" /></g></g></g></g></svg>